<?xml version="1.0" standalone="no"?>
<!DOCTYPE svg PUBLIC "-//W3C//DTD SVG 20010904//EN"
 "http://www.w3.org/TR/2001/REC-SVG-20010904/DTD/svg10.dtd">
<svg version="1.0" xmlns="http://www.w3.org/2000/svg"
 width="996.000000pt" height="996.000000pt" viewBox="0 0 996.000000 996.000000"
 preserveAspectRatio="xMidYMid meet">
<metadata>
Created by potrace 1.14, written by Peter Selinger 2001-2017
</metadata>
<g transform="translate(0.000000,996.000000) scale(0.100000,-0.100000)"
fill="#000000" stroke="none">
<path d="M7010 9289 c-472 -61 -923 -287 -1270 -638 -341 -345 -556 -780 -614
-1241 -37 -289 -178 -1689 -173 -1704 5 -13 25 -16 126 -16 66 0 122 4 125 9
3 4 46 395 96 867 49 473 99 906 110 964 55 277 187 559 370 790 386 485 1002
764 1573 712 226 -21 356 -57 552 -152 514 -249 824 -768 815 -1365 -1 -60 -2
-116 -1 -122 1 -17 246 -18 256 -2 4 6 7 88 7 182 0 267 -41 477 -136 700
-238 555 -726 925 -1337 1012 -112 16 -390 18 -499 4z"/>
<path d="M2805 8775 c-924 -147 -1671 -876 -1829 -1787 -9 -48 -13 -95 -10
-103 5 -12 29 -15 130 -15 120 0 124 1 128 23 3 12 14 72 26 132 128 668 661
1242 1333 1436 179 52 264 63 482 63 221 0 320 -15 500 -75 425 -141 771 -488
913 -915 58 -172 89 -392 78 -554 -3 -52 -33 -357 -67 -677 -34 -321 -59 -590
-55 -598 4 -12 28 -15 125 -15 72 0 122 4 126 10 4 6 36 286 71 623 70 667 77
813 48 1006 -41 280 -142 535 -302 761 -85 121 -260 296 -382 383 -189 134
-459 248 -696 293 -123 23 -495 28 -619 9z"/>
<path d="M7010 8763 c-249 -39 -459 -120 -656 -251 -356 -238 -608 -611 -684
-1011 -24 -128 -196 -1771 -187 -1794 6 -15 21 -17 127 -17 87 0 122 3 125 13
3 6 45 398 95 871 57 546 98 892 111 950 98 417 429 779 839 919 538 183 1087
-29 1310 -506 63 -134 104 -332 99 -477 -1 -30 -1 -61 0 -68 1 -10 31 -12 129
-10 l127 3 3 134 c7 333 -111 639 -337 874 -181 189 -422 316 -685 362 -82 14
-346 19 -416 8z"/>
<path d="M2940 8264 c-698 -57 -1291 -581 -1430 -1263 -11 -57 -19 -110 -16
-117 7 -19 239 -20 254 -1 5 6 13 37 17 67 11 82 68 249 121 351 218 422 661
699 1119 699 393 0 746 -212 910 -545 51 -105 67 -152 90 -260 28 -138 22
-273 -45 -898 -34 -319 -59 -585 -56 -593 7 -18 241 -21 252 -3 4 7 36 282 71
613 81 761 81 852 -1 1111 -112 354 -413 655 -776 775 -136 45 -372 75 -510
64z"/>
<path d="M7025 8239 c-408 -35 -776 -365 -859 -769 -19 -93 -188 -1692 -184
-1740 l3 -35 123 -3 c92 -2 123 1 127 10 2 7 45 400 94 873 97 924 98 926 168
1055 56 101 187 225 294 278 240 119 501 87 673 -83 59 -58 117 -150 137 -218
6 -18 14 -72 19 -121 5 -49 13 -93 18 -98 5 -5 62 -7 128 -6 l119 3 0 110 c-1
134 -19 206 -82 335 -39 80 -61 109 -138 186 -80 80 -104 98 -195 142 -150 72
-276 95 -445 81z"/>
<path d="M2894 7730 c-207 -26 -423 -137 -576 -298 -86 -90 -134 -160 -188
-274 -43 -90 -87 -246 -77 -272 6 -14 24 -16 129 -14 121 3 123 3 130 28 53
187 97 270 198 370 155 156 381 230 582 191 249 -48 428 -267 428 -522 0 -41
-27 -332 -60 -648 -34 -316 -59 -580 -56 -588 7 -18 241 -19 252 -1 10 16 133
1184 134 1265 0 124 -46 290 -111 399 -77 128 -224 255 -359 310 -123 50 -288
71 -426 54z"/>
<path d="M4418 5423 c-9 -2 -19 -12 -23 -21 -7 -18 -223 -2061 -227 -2150 -3
-46 0 -56 21 -73 21 -17 42 -19 253 -19 293 0 268 -19 291 220 10 96 38 368
64 603 36 335 49 425 58 415 7 -7 74 -133 150 -280 76 -148 141 -268 145 -268
4 0 90 116 190 258 101 141 192 268 203 282 l20 25 -7 -75 c-4 -41 -32 -311
-62 -600 -30 -288 -53 -534 -50 -546 3 -12 16 -24 28 -28 13 -3 125 -6 250 -6
225 0 228 0 242 23 14 22 42 277 181 1626 30 293 55 546 55 562 0 56 -21 60
-279 57 l-231 -3 -24 -25 c-13 -14 -86 -126 -162 -250 -198 -324 -276 -442
-284 -433 -4 4 -62 136 -129 293 -155 361 -170 392 -201 407 -18 9 -88 12
-240 12 -118 -1 -222 -3 -232 -6z"/>
<path d="M6854 5420 c-140 -21 -222 -105 -253 -260 -10 -52 -61 -520 -147
-1371 -33 -322 -36 -373 -25 -421 18 -81 58 -138 122 -173 l54 -30 530 0 531
0 49 25 c62 32 110 97 129 176 9 32 49 365 90 739 120 1090 119 1074 76 1172
-26 58 -61 98 -115 126 -39 22 -49 22 -515 24 -261 0 -498 -2 -526 -7z m607
-479 l24 -19 -63 -593 c-35 -327 -68 -609 -74 -627 -18 -59 -54 -72 -198 -72
-141 0 -170 10 -170 58 0 85 124 1181 137 1209 22 48 67 62 204 62 100 1 120
-2 140 -18z"/>
<path d="M1863 5410 c-95 -19 -169 -82 -198 -170 -24 -73 -70 -424 -105 -800
-12 -132 -3 -200 34 -264 31 -53 51 -70 110 -97 44 -19 72 -22 265 -26 119 -3
224 -10 234 -15 14 -7 17 -22 17 -83 0 -98 -18 -225 -36 -252 -29 -46 -43 -48
-371 -53 -223 -4 -315 -8 -324 -17 -14 -14 -54 -400 -45 -437 5 -19 15 -27 39
-31 18 -4 246 -5 507 -3 526 5 548 7 625 71 43 35 89 125 104 201 14 69 81
767 81 839 0 32 -6 73 -14 91 -22 53 -81 111 -139 137 -48 21 -70 24 -269 29
-186 4 -220 7 -234 22 -16 15 -16 28 -4 155 14 151 25 184 73 213 30 19 52 20
333 20 273 0 304 2 323 18 18 15 22 38 36 219 12 148 13 208 5 223 -11 20 -18
20 -508 19 -273 -1 -516 -5 -539 -9z"/>
<path d="M3377 5413 c-13 -22 -48 -345 -183 -1663 l-56 -554 22 -18 c20 -16
46 -18 255 -18 199 0 236 2 249 16 9 8 16 21 16 27 0 7 47 464 104 1017 127
1224 120 1143 112 1174 l-6 26 -255 0 c-139 0 -256 -3 -258 -7z"/>
<path d="M3105 2881 c-9 -15 -237 -2211 -231 -2227 4 -11 31 -14 125 -14 73 0
122 4 126 10 7 12 235 2152 235 2208 l0 32 -124 0 c-69 0 -127 -4 -131 -9z"/>
<path d="M3597 2843 c-31 -244 -228 -2177 -223 -2188 4 -12 28 -15 125 -15 71
0 122 4 126 10 7 11 235 2162 235 2213 l0 27 -129 0 -128 0 -6 -47z"/>
<path d="M4127 2853 c-19 -129 -229 -2184 -224 -2197 5 -13 26 -16 126 -16 66
0 122 4 125 9 6 9 236 2176 236 2218 0 23 -1 23 -129 23 l-128 0 -6 -37z"/>
<path d="M4647 2858 c-17 -101 -230 -2187 -224 -2201 5 -15 23 -17 126 -17 66
0 122 4 125 8 5 8 236 2188 236 2225 0 15 -15 17 -129 17 l-129 0 -5 -32z"/>
<path d="M5179 2888 c-6 -23 -234 -2227 -231 -2235 6 -18 251 -18 257 0 9 26
235 2218 230 2227 -5 8 -254 15 -256 8z"/>
<path d="M5679 2888 c-6 -21 -234 -2227 -231 -2235 6 -18 251 -18 257 0 9 25
235 2220 229 2228 -4 8 -253 14 -255 7z"/>
</g>
</svg>
